<?xml version="1.0" encoding="UTF-8"?><svg xmlns="http://www.w3.org/2000/svg" viewBox="72.88 17.74 159.34 34.61"><defs><style>.cls-2{fill:#ffffff;}.cls-3{fill:#ffffff;font-family:ArialNarrow, 'Arial Narrow';font-size:9.5px;}.cls-5{letter-spacing:-.06em;}.cls-6{letter-spacing:-.06em;}.cls-7{letter-spacing:-.01em;}.cls-8{letter-spacing:-.04em;}.cls-9{letter-spacing:-.03em;}.cls-10{letter-spacing:.05em;}.cls-11{letter-spacing:.05em;}.cls-12{letter-spacing:.05em;}</style></defs><path class="cls-2" d="M86.3,33.01c.05,1.7-.59,3.14-1.93,4.31-1.34,1.18-2.91,1.76-4.7,1.76h-6.79v-21.34h6.04c1.7,0,3.17.5,4.41,1.5,1.31,1.05,1.97,2.38,1.97,3.99,0,1.9-.81,3.38-2.44,4.43,2.2,1.04,3.34,2.82,3.44,5.35ZM78.89,19.74h-3.78v7.12h3.9c1.11,0,2.09-.33,2.93-.98.84-.65,1.26-1.5,1.26-2.53,0-1.15-.44-2.04-1.33-2.69-.8-.61-1.79-.91-2.97-.91ZM84.11,32.81c-.07-1.34-.61-2.37-1.61-3.07-.91-.63-2.11-.94-3.63-.94h-3.77v8.23h3.88c1.64,0,2.93-.39,3.85-1.16.92-.77,1.35-1.79,1.27-3.07Z"/><path class="cls-2" d="M102.87,32.16c0,2.09-.71,3.84-2.15,5.25-1.43,1.41-3.16,2.1-5.2,2.06-1.99-.02-3.67-.74-5.04-2.15-1.37-1.41-2.05-3.16-2.05-5.25v-14.36h2.11v13.99c0,1.61.49,2.96,1.45,4.07.96,1.1,2.18,1.65,3.67,1.65s2.64-.51,3.63-1.53c.99-1.02,1.48-2.27,1.48-3.77v-14.4h2.11v14.44Z"/><path class="cls-2" d="M117.48,19.77h-6.14c-1.11,0-1.89.22-2.34.66-.7.74-1.05,1.48-1.05,2.22v4.6h7.15v2.05h-7.15v9.78h-2.11v-16.07c0-1.68.52-2.97,1.55-3.88,1.03-.9,2.36-1.36,3.96-1.36h6.12v2Z"/><path class="cls-2" d="M130.51,19.77h-6.14c-1.11,0-1.89.22-2.34.66-.7.74-1.05,1.48-1.05,2.22v4.6h7.15v2.05h-7.15v9.78h-2.11v-16.07c0-1.68.52-2.97,1.55-3.88,1.03-.9,2.36-1.36,3.96-1.36h6.12v2Z"/><path class="cls-2" d="M134.75,39.08h-2.1v-21.34h2.1v21.34Z"/><path class="cls-2" d="M154.67,39.08h-2.38l-12.25-18.57v18.57h-2.22v-21.34h2.88l11.78,17.9v-17.9h2.19v21.34Z"/><path class="cls-2" d="M180.41,29.27c-.33,3.32-1.77,5.94-4.32,7.84-2.12,1.59-4.44,2.37-6.96,2.36-3.08-.02-5.76-1.11-8.04-3.27-2.27-2.16-3.4-4.76-3.38-7.79.02-3.11,1.12-5.71,3.28-7.81,2.17-2.1,4.84-3.16,8-3.16,2.31,0,4.25.44,5.82,1.33,1.68.96,3.1,2.54,4.27,4.71h-2.38c-1.88-2.73-4.49-4.08-7.82-4.05-2.4.02-4.49.88-6.26,2.58-1.83,1.74-2.78,3.83-2.85,6.29-.06,2.48.82,4.58,2.63,6.32,1.75,1.7,3.95,2.64,6.6,2.8,1.79.13,3.56-.42,5.31-1.66,1.75-1.24,2.92-2.76,3.53-4.57h-11.94v-1.91h14.52Z"/><path class="cls-2" d="M191.6,19.77h-4.85v19.31h-2.11v-19.31h-4.82v-2h11.78v2Z"/><path class="cls-2" d="M213.5,28.25c0,3.08-1.09,5.73-3.28,7.94-2.19,2.21-4.82,3.31-7.88,3.31s-5.69-1.06-7.91-3.19c-2.23-2.12-3.34-4.69-3.34-7.68s1.09-5.7,3.26-7.9c2.17-2.2,4.79-3.3,7.86-3.3s5.72,1.05,7.95,3.14c2.24,2.1,3.35,4.65,3.35,7.66ZM211.45,28.38c-.04-2.48-.96-4.58-2.76-6.31-1.8-1.72-3.95-2.58-6.44-2.58s-4.57.88-6.35,2.64c-1.77,1.76-2.66,3.87-2.66,6.34s.89,4.55,2.66,6.31c1.77,1.76,3.9,2.65,6.37,2.67,2.51.02,4.67-.86,6.49-2.64,1.81-1.78,2.71-3.92,2.69-6.42Z"/><path class="cls-2" d="M232.22,39.08h-2.38l-12.25-18.57v18.57h-2.22v-21.34h2.88l11.78,17.9v-17.9h2.19v21.34Z"/><text class="cls-3" transform="translate(72.89 51.35)"><tspan class="cls-8" x="0" y="0">F</tspan><tspan x="4.33" y="0">AMI</tspan><tspan class="cls-6" x="18.18" y="0">L</tspan><tspan class="cls-7" x="21.95" y="0">Y</tspan><tspan class="cls-10" x="27.01" y="0"> </tspan><tspan x="29.66" y="0">MEDICINE</tspan><tspan class="cls-11" x="67.74" y="0"> </tspan><tspan x="70.39" y="0">+</tspan><tspan class="cls-12" x="74.94" y="0"> </tspan><tspan x="77.59" y="0">BEH</tspan><tspan class="cls-5" x="93.61" y="0">A</tspan><tspan x="98.23" y="0">VIORA</tspan><tspan class="cls-9" x="122.47" y="0">L</tspan><tspan class="cls-12" x="126.52" y="0"> </tspan><tspan x="129.17" y="0">HEA</tspan><tspan class="cls-5" x="145.19" y="0">L</tspan><tspan x="148.95" y="0">TH</tspan></text></svg>
