<?xml version="1.0" encoding="UTF-8"?><svg xmlns="http://www.w3.org/2000/svg" viewBox="0 0 60.41 60.41"><defs><style>.cls-1{fill:#659cd3;}.cls-2{fill:#659cd3;}</style></defs><path class="cls-2" d="M28,13.01c17.73,0,29.33,8.23,29.33,23.84,0,4.35-1.03,8.21-3.05,11.61,3.85-5.07,6.14-11.39,6.14-18.25C60.41,13.53,46.89,0,30.21,0c-.74,0-1.48.03-2.21.09"/><polyline class="cls-2" points="28.99 32.01 24.24 32.01 24.24 40.38 29.05 40.38 29.05 45.52 37.42 45.52 37.42 40.38 42.24 40.38 42.24 32.01 37.42 32.01 37.42 26.86 28.99 26.86"/><path class="cls-1" d="M17.85,52.55c-4.14-4.45-6.2-10.4-6.2-17.86V6.39C4.19,12.21-.48,21.45.04,31.75c.75,14.94,12.62,27.28,27.53,28.55,4.58.39,8.98-.25,12.97-1.7-1.74.4-3.56.62-5.5.62-7.33,0-13.07-2.22-17.2-6.67Z"/></svg>
